<svg width="58" height="58" viewBox="0 0 58 58" fill="none" xmlns="http://www.w3.org/2000/svg">
<circle cx="29.125" cy="29.125" r="28.375" fill="#00050F" stroke="#CA92FF"/>
<path d="M39.0741 17.9243L16.7991 27.8243C11.8491 29.8865 15.1491 29.4747 18.4491 31.1247C21.0891 32.4447 23.9491 30.8497 25.0491 29.8872L35.633 22.9669C35.7264 22.9058 35.8301 22.8591 35.9396 22.8375C36.8938 22.6492 37.0926 23.088 37.0596 23.4691C37.0463 23.6238 36.9545 23.7568 36.8447 23.8666L28.3491 32.3622C26.4302 33.9612 27.7141 35.1729 28.6713 35.6216C28.7309 35.6496 28.7889 35.6809 28.8432 35.7183L35.3616 40.1997C39.3216 43.4997 40.8616 39.3747 41.1366 36.8997L44.0241 19.9868C45.3441 15.3668 41.2741 16.6868 39.0741 17.9243Z" fill="#00050F" stroke="#CA92FF"/>
</svg>
