<svg width="58" height="58" viewBox="0 0 58 58" fill="none" xmlns="http://www.w3.org/2000/svg">
<circle cx="28.875" cy="29.125" r="28.375" fill="#00050F" stroke="#CA92FF"/>
<path d="M17.0434 21.043C16.3291 18.8873 14.8134 19.2464 13.4717 19.2466L13.4698 19.2466C11.9915 19.2468 11.1009 19.2469 10.5383 19.3776C10.1178 19.4753 10.0356 19.964 10.2335 20.3477C18.1956 35.7871 24.2315 39.229 26.3508 39.0163C26.3981 39.0115 26.4432 39.008 26.4908 39.008H29.4992C30.181 39.008 30.676 38.3279 30.6596 37.6463C30.6374 36.7207 30.875 35.6464 31.777 34.9659C33.1647 33.9189 34.9456 34.4822 35.7285 34.9269C35.7734 34.9524 35.8144 34.982 35.8539 35.0152C36.7677 35.7858 38.571 37.4065 38.9205 38.1097C39.2777 38.8283 41.1528 39.008 42.0458 39.008H45.4457C46.3352 39.008 46.7887 37.9274 46.1751 37.2835C44.92 35.9662 43.4263 34.3439 42.4923 33.1695C41.0635 31.373 41.5993 29.1274 42.0458 28.2292L46.7872 21.2584C47.2387 20.5945 46.7632 19.696 45.9603 19.696H41.4008C40.9833 19.696 40.6116 19.9543 40.4552 20.3415C39.415 22.9158 37.1962 27.3596 34.9023 28.6778C32.402 30.1147 31.4793 28.3786 31.3305 27.331C31.3305 24.7859 31.1519 19.5161 30.4375 18.7973C29.9586 18.3154 27.8474 18.345 25.88 18.5072C24.967 18.5824 24.5123 19.9691 24.9465 20.7757C26.4077 23.4907 26.7819 27.6506 25.0799 28.6778C23.3641 29.7134 22.0604 29.1737 21.5648 28.7314C21.5259 28.6967 21.4938 28.658 21.4633 28.6157C20.2545 26.9365 17.7489 23.1721 17.0434 21.043Z" fill="#00050F" stroke="#CA92FF"/>
</svg>
