<svg width="227" height="46" viewBox="0 0 227 46" fill="none" xmlns="http://www.w3.org/2000/svg">
<path d="M69.64 36.35C67.9367 36.35 66.4433 36.035 65.16 35.405C63.8767 34.7517 62.8733 33.8533 62.15 32.71C61.45 31.5433 61.1 30.19 61.1 28.65V17.8C61.1 16.2367 61.45 14.8833 62.15 13.74C62.8733 12.5967 63.8767 11.71 65.16 11.08C66.4433 10.4267 67.9367 10.1 69.64 10.1C71.3667 10.1 72.86 10.4267 74.12 11.08C75.4033 11.71 76.395 12.5967 77.095 13.74C77.8183 14.8833 78.18 16.2367 78.18 17.8H72.93C72.93 16.7733 72.6383 15.9917 72.055 15.455C71.495 14.9183 70.69 14.65 69.64 14.65C68.59 14.65 67.7733 14.9183 67.19 15.455C66.63 15.9917 66.35 16.7733 66.35 17.8V28.65C66.35 29.6533 66.63 30.435 67.19 30.995C67.7733 31.5317 68.59 31.8 69.64 31.8C70.69 31.8 71.495 31.5317 72.055 30.995C72.6383 30.435 72.93 29.6533 72.93 28.65V26.445H69.15V22H78.18V28.65C78.18 30.19 77.8183 31.5433 77.095 32.71C76.395 33.8533 75.4033 34.7517 74.12 35.405C72.86 36.035 71.3667 36.35 69.64 36.35ZM88.0013 36.35C86.0647 36.35 84.5247 35.825 83.3813 34.775C82.2613 33.725 81.7013 32.3017 81.7013 30.505C81.7013 28.5683 82.3663 27.0867 83.6963 26.06C85.0497 25.01 86.9863 24.485 89.5063 24.485H93.4963V23.05C93.4963 22.3033 93.228 21.7083 92.6913 21.265C92.178 20.8217 91.478 20.6 90.5913 20.6C89.7747 20.6 89.098 20.7867 88.5613 21.16C88.0247 21.5333 87.698 22.0467 87.5813 22.7H82.5063C82.7163 20.7633 83.5563 19.235 85.0263 18.115C86.5197 16.9717 88.433 16.4 90.7663 16.4C93.2163 16.4 95.153 17.0067 96.5763 18.22C98.023 19.41 98.7463 21.02 98.7463 23.05V36H93.6713V32.85H92.8313L93.7063 31.625C93.7063 33.0717 93.1813 34.2267 92.1313 35.09C91.1047 35.93 89.728 36.35 88.0013 36.35ZM89.9613 32.5C90.988 32.5 91.828 32.2317 92.4813 31.695C93.158 31.135 93.4963 30.4117 93.4963 29.525V27.46H89.6113C88.818 27.46 88.1763 27.6933 87.6863 28.16C87.1963 28.6033 86.9513 29.1983 86.9513 29.945C86.9513 30.7383 87.2197 31.3683 87.7563 31.835C88.293 32.2783 89.028 32.5 89.9613 32.5ZM102.443 36V16.75H106.573V19.55H107.413L106.748 20.04C106.748 18.9433 107.063 18.0683 107.693 17.415C108.323 16.7383 109.104 16.4 110.038 16.4C111.041 16.4 111.823 16.8317 112.383 17.695C112.943 18.5583 113.223 19.7017 113.223 21.125L112.593 19.55H113.573L113.258 20.04C113.258 18.9433 113.561 18.0683 114.168 17.415C114.774 16.7383 115.591 16.4 116.618 16.4C117.784 16.4 118.729 16.8433 119.453 17.73C120.176 18.5933 120.538 19.7833 120.538 21.3V36H116.023V21.65C116.023 21.1133 115.906 20.705 115.673 20.425C115.439 20.1217 115.101 19.97 114.658 19.97C114.214 19.97 113.876 20.1217 113.643 20.425C113.409 20.705 113.293 21.1133 113.293 21.65V36H109.688V21.65C109.688 21.1133 109.571 20.705 109.338 20.425C109.104 20.1217 108.766 19.97 108.323 19.97C107.879 19.97 107.541 20.1217 107.308 20.425C107.074 20.705 106.958 21.1133 106.958 21.65V36H102.443ZM132.494 36.35C130.791 36.35 129.297 36.035 128.014 35.405C126.754 34.7517 125.774 33.8533 125.074 32.71C124.397 31.5433 124.059 30.19 124.059 28.65V24.1C124.059 22.56 124.397 21.2183 125.074 20.075C125.774 18.9083 126.754 18.01 128.014 17.38C129.297 16.7267 130.791 16.4 132.494 16.4C134.197 16.4 135.667 16.7267 136.904 17.38C138.164 18.01 139.132 18.9083 139.809 20.075C140.509 21.2183 140.859 22.56 140.859 24.1V27.6H129.064V28.65C129.064 29.8633 129.356 30.785 129.939 31.415C130.522 32.0217 131.397 32.325 132.564 32.325C133.381 32.325 134.034 32.185 134.524 31.905C135.037 31.625 135.376 31.24 135.539 30.75H140.684C140.264 32.43 139.307 33.7833 137.814 34.81C136.344 35.8367 134.571 36.35 132.494 36.35ZM135.854 24.905V24.03C135.854 22.84 135.574 21.93 135.014 21.3C134.477 20.67 133.637 20.355 132.494 20.355C131.351 20.355 130.487 20.6817 129.904 21.335C129.344 21.9883 129.064 22.91 129.064 24.1V24.625L136.204 24.555L135.854 24.905ZM145.57 36V31.1L154.95 15.35H145.85V10.45H160.935V15.35L151.52 31.1H161.32V36H145.57ZM174.432 36.35C172.728 36.35 171.247 36.035 169.987 35.405C168.727 34.7517 167.747 33.8533 167.047 32.71C166.37 31.5433 166.032 30.19 166.032 28.65V24.1C166.032 22.56 166.37 21.2183 167.047 20.075C167.747 18.9083 168.727 18.01 169.987 17.38C171.247 16.7267 172.728 16.4 174.432 16.4C176.158 16.4 177.64 16.7267 178.877 17.38C180.137 18.01 181.105 18.9083 181.782 20.075C182.482 21.2183 182.832 22.56 182.832 24.1V28.65C182.832 30.19 182.482 31.5433 181.782 32.71C181.105 33.8533 180.137 34.7517 178.877 35.405C177.64 36.035 176.158 36.35 174.432 36.35ZM174.432 31.8C175.458 31.8 176.24 31.5317 176.777 30.995C177.313 30.435 177.582 29.6533 177.582 28.65V24.1C177.582 23.0733 177.313 22.2917 176.777 21.755C176.24 21.2183 175.458 20.95 174.432 20.95C173.428 20.95 172.647 21.2183 172.087 21.755C171.55 22.2917 171.282 23.0733 171.282 24.1V28.65C171.282 29.6533 171.55 30.435 172.087 30.995C172.647 31.5317 173.428 31.8 174.432 31.8ZM187.228 36V16.75H192.303V20.425H193.843L192.303 21.65C192.303 20.0167 192.77 18.7333 193.703 17.8C194.636 16.8667 195.896 16.4 197.483 16.4C199.35 16.4 200.843 17.0533 201.963 18.36C203.106 19.6667 203.678 21.405 203.678 23.575V36H198.428V24.1C198.428 23.0967 198.16 22.3267 197.623 21.79C197.11 21.23 196.375 20.95 195.418 20.95C194.485 20.95 193.761 21.23 193.248 21.79C192.735 22.3267 192.478 23.0967 192.478 24.1V36H187.228ZM216.439 36.35C214.736 36.35 213.243 36.035 211.959 35.405C210.699 34.7517 209.719 33.8533 209.019 32.71C208.343 31.5433 208.004 30.19 208.004 28.65V24.1C208.004 22.56 208.343 21.2183 209.019 20.075C209.719 18.9083 210.699 18.01 211.959 17.38C213.243 16.7267 214.736 16.4 216.439 16.4C218.143 16.4 219.613 16.7267 220.849 17.38C222.109 18.01 223.078 18.9083 223.754 20.075C224.454 21.2183 224.804 22.56 224.804 24.1V27.6H213.009V28.65C213.009 29.8633 213.301 30.785 213.884 31.415C214.468 32.0217 215.343 32.325 216.509 32.325C217.326 32.325 217.979 32.185 218.469 31.905C218.983 31.625 219.321 31.24 219.484 30.75H224.629C224.209 32.43 223.253 33.7833 221.759 34.81C220.289 35.8367 218.516 36.35 216.439 36.35ZM219.799 24.905V24.03C219.799 22.84 219.519 21.93 218.959 21.3C218.423 20.67 217.583 20.355 216.439 20.355C215.296 20.355 214.433 20.6817 213.849 21.335C213.289 21.9883 213.009 22.91 213.009 24.1V24.625L220.149 24.555L219.799 24.905Z" fill="#CA92FF"/>
<rect y="8" width="36.9857" height="22.7744" rx="4" fill="#CA92FF"/>
<rect x="3.41455" y="10.181" width="30" height="18" rx="2" fill="#1E1E1E"/>
<rect x="17.1265" y="29.8634" width="2.91513" height="6.37684" rx="1.45756" fill="#CA92FF"/>
<rect x="38.8081" y="8.18213" width="14.2112" height="28.0581" rx="4" fill="#CA92FF"/>
<rect x="40.083" y="14.5591" width="11.6605" height="20.2237" rx="2" fill="#1E1E1E"/>
<rect x="40.083" y="9.27539" width="11.6605" height="4.37269" rx="2" fill="#1E1E1E"/>
<rect x="12.0249" y="34.7827" width="12.9359" height="1.45756" rx="0.728782" fill="#CA92FF"/>
</svg>
